<svg xmlns="http://www.w3.org/2000/svg" width="24" height="24" viewBox="0 0 24 24" fill="none" stroke="currentColor" stroke-width="2" stroke-linecap="round" stroke-linejoin="round" class="lucide lucide-sparkles h-6 w-6" data-lov-id="src/components/Features.tsx:57:16" data-lov-name="feature.icon" data-component-path="src/components/Features.tsx" data-component-line="57" data-component-file="Features.tsx" data-component-name="feature.icon" data-component-content="%7B%22className%22%3A%22h-6%20w-6%22%7D"><path d="M9.937 15.5A2 2 0 0 0 8.5 14.063l-6.135-1.582a.5.5 0 0 1 0-.962L8.5 9.936A2 2 0 0 0 9.937 8.5l1.582-6.135a.5.5 0 0 1 .963 0L14.063 8.5A2 2 0 0 0 15.5 9.937l6.135 1.581a.5.5 0 0 1 0 .964L15.5 14.063a2 2 0 0 0-1.437 1.437l-1.582 6.135a.5.5 0 0 1-.963 0z"></path><path d="M20 3v4"></path><path d="M22 5h-4"></path><path d="M4 17v2"></path><path d="M5 18H3"></path></svg>